<?xml version="1.0" encoding="UTF-8"?>
<svg id="Warstwa_1" data-name="Warstwa 1" xmlns="http://www.w3.org/2000/svg" xmlns:xlink="http://www.w3.org/1999/xlink" viewBox="0 0 228 30">
  <defs>
    <style>
      .cls-1 {
        fill: none;
      }

      .cls-2 {
        fill: #575756;
      }

      .cls-3 {
        clip-path: url(#clippath);
      }
    </style>
    <clipPath id="clippath">
      <rect class="cls-1" width="228" height="30"/>
    </clipPath>
  </defs>
  <g class="cls-3">
    <g>
      <path class="cls-2" d="M9.21.41L3.69,6.12l6,6.07v.12h-2.41L1.93,6.85v5.46H0V.34h1.92v5.17L6.82.34h2.39v.06Z"/>
      <path class="cls-2" d="M32.37,9.8h-6.51l-1.13,2.52h-2.04L28.07.34h2.1l5.39,11.98h-2.04l-1.15-2.52ZM29.12,2.36l-2.55,5.7h5.08l-2.54-5.7Z"/>
      <path class="cls-2" d="M59.81,10.78c-.6.58-1.3,1.03-2.08,1.34-.78.31-1.6.45-2.44.44-.83.06-1.67-.05-2.46-.33-.79-.28-1.5-.73-2.1-1.31-.6-.58-1.07-1.28-1.37-2.06-.31-.77-.44-1.61-.4-2.44-.04-.84.09-1.68.4-2.46.3-.78.77-1.49,1.37-2.09.6-.59,1.31-1.05,2.1-1.35.79-.3,1.63-.43,2.47-.38.82,0,1.63.15,2.38.47.76.31,1.44.77,2.02,1.35l-1.29,1.23c-.83-.8-1.95-1.24-3.11-1.23-.59-.03-1.19.06-1.74.28-.55.21-1.06.54-1.47.96-.42.42-.74.92-.95,1.48-.21.55-.3,1.14-.26,1.73-.03.59.06,1.17.27,1.72.21.55.54,1.04.96,1.46.42.41.92.73,1.47.94.55.2,1.14.29,1.73.25,1.19-.01,2.34-.48,3.19-1.3l1.33,1.32Z"/>
      <path class="cls-2" d="M74.17.34h8.78v.87l-6.62,9.27h6.62v1.83h-9.33v-1.08l6.49-9.14h-5.94V.34Z"/>
      <path class="cls-2" d="M108.53,3.15l-4.09,5.66h-.41l-4.04-5.66v9.19h-1.92V.36h2.23l3.97,5.61,3.95-5.61h2.23v11.98h-1.92V3.15h0Z"/>
      <path class="cls-2" d="M134.73,9.8h-6.51l-1.13,2.52h-2.04l5.39-11.98h2.1l5.39,11.98h-2.04l-1.15-2.52ZM131.48,2.36l-2.55,5.7h5.09l-2.55-5.7Z"/>
      <path class="cls-2" d="M162.88,12.32h-2.25l-3.66-4.14h-2.55v4.14h-1.92V.33c1.87,0,3.73.02,5.6.02.54-.04,1.09.02,1.6.2.51.18.99.46,1.39.83s.72.82.93,1.31c.22.5.33,1.03.32,1.58.05.92-.26,1.83-.87,2.53-.61.7-1.47,1.13-2.4,1.2l3.59,3.99.21.34ZM154.43,2.09v4.34h3.66c.3.03.6,0,.88-.09.28-.09.54-.25.76-.45.22-.2.39-.45.5-.73.11-.28.17-.57.15-.87.01-.3-.04-.6-.15-.87-.11-.28-.28-.53-.5-.74-.22-.21-.47-.37-.75-.47-.28-.1-.58-.15-.88-.12h-3.68Z"/>
      <path class="cls-2" d="M185.01,2.99c-.36-.44-.81-.78-1.33-1.02-.51-.23-1.08-.34-1.64-.32-1.62,0-2.78.67-2.78,1.81s1.34,1.49,2.92,1.71c2.47.34,4.83,1.03,4.83,3.71s-2.48,3.69-4.98,3.69c-2.3,0-4.07-.7-5.17-2.72l1.44-.96c.39.63.94,1.15,1.6,1.49.66.35,1.4.51,2.14.47,1.44,0,3.04-.48,3.04-1.98,0-1.3-1.39-1.75-3.07-1.97-2.39-.33-4.65-.92-4.65-3.49C177.33.96,179.82,0,181.98,0c.86-.09,1.73.05,2.51.41.79.35,1.47.91,1.97,1.61l-1.46.98Z"/>
      <path class="cls-2" d="M211.27.41l-5.51,5.71,6,6.07v.12h-2.4l-5.36-5.46v5.46h-1.92V.34h1.92v5.17l4.9-5.17h2.39v.06Z"/>
      <path class="cls-2" d="M226.09,12.32V.34h1.91v11.98h-1.91Z"/>
      <path class="cls-2" d="M81.46,23.56c-.65-.59-1.49-.93-2.37-.94-.43-.01-.86.06-1.26.23-.4.16-.76.41-1.06.72-.3.31-.53.68-.68,1.09-.15.4-.21.84-.18,1.27-.02.42.05.85.2,1.24.15.39.39.75.69,1.05.3.3.67.53,1.07.67.4.15.82.21,1.25.18.8,0,1.58-.28,2.19-.81v-1.89h-2.5v-.88h3.4v3.16c-.39.44-.87.78-1.4,1.02s-1.12.35-1.7.34c-.55.04-1.11-.03-1.63-.22-.52-.19-1-.48-1.39-.87-.4-.39-.7-.85-.9-1.37-.2-.51-.29-1.07-.25-1.62-.04-.56.05-1.12.24-1.64.2-.52.5-1,.89-1.4.39-.4.87-.71,1.39-.91.52-.2,1.08-.29,1.64-.27,1.1,0,2.16.43,2.94,1.2l-.58.66Z"/>
      <path class="cls-2" d="M95.48,26.97h-1.95v2.87h-1v-7.98h3.64c.35-.03.7.02,1.03.14.33.12.64.3.89.54s.46.53.59.85c.14.32.2.67.2,1.02.02.32-.02.63-.13.93-.11.3-.27.57-.49.8s-.48.42-.77.54c-.29.13-.6.19-.92.2l2.64,2.95h-1.26l-2.5-2.87ZM97.89,24.43c0-.23-.03-.45-.12-.66-.08-.21-.21-.4-.37-.56-.16-.16-.35-.28-.56-.36-.21-.08-.44-.12-.66-.11h-2.65v3.33h2.6c.23.03.46,0,.68-.07.22-.07.42-.19.59-.35s.3-.35.39-.56c.09-.21.13-.44.11-.67h0Z"/>
      <path class="cls-2" d="M116.93,25.87c-.02.8-.27,1.57-.73,2.23-.46.65-1.1,1.16-1.85,1.45s-1.56.36-2.35.19c-.78-.17-1.5-.56-2.06-1.14-.56-.57-.94-1.3-1.08-2.08-.15-.79-.06-1.6.25-2.33.31-.74.84-1.36,1.51-1.8.67-.44,1.46-.67,2.26-.67.55-.02,1.09.08,1.6.28.51.2.97.51,1.35.9.38.39.68.86.87,1.37.19.51.27,1.06.24,1.6ZM112.87,22.63c-.65-.03-1.29.12-1.84.45s-1,.82-1.27,1.4c-.27.58-.36,1.23-.26,1.87.1.64.39,1.23.84,1.69.44.47,1.02.79,1.65.94.63.14,1.29.09,1.89-.14.6-.23,1.12-.64,1.49-1.17.37-.53.56-1.16.57-1.8.04-.42-.02-.84-.16-1.23-.14-.4-.36-.76-.65-1.06-.29-.31-.64-.55-1.03-.71-.39-.16-.81-.24-1.23-.23h0Z"/>
      <path class="cls-2" d="M133.6,21.87v4.79c.04.44-.02.88-.18,1.29-.15.41-.39.79-.69,1.11-.31.32-.68.56-1.09.72-.41.16-.85.23-1.29.21-.44.02-.88-.05-1.3-.21-.41-.16-.79-.41-1.1-.72-.31-.31-.55-.69-.71-1.1-.15-.41-.22-.85-.19-1.29v-4.79h.99v4.79c-.02.31.03.62.13.91s.27.56.49.79c.21.23.47.41.76.53.29.12.6.19.91.18.31,0,.62-.07.91-.19.29-.12.54-.31.76-.53.21-.23.38-.5.48-.79.1-.29.15-.6.13-.92v-4.79h.99Z"/>
      <path class="cls-2" d="M145.25,29.84h-.99v-7.98h3.64c.37-.02.73.04,1.08.17.35.13.66.32.93.58.27.25.48.56.62.89.15.34.22.7.22,1.07s-.07.73-.22,1.07c-.14.34-.36.64-.62.89-.27.25-.58.45-.93.58-.35.13-.71.18-1.08.17h-2.66v2.58ZM147.91,22.79h-2.66v3.56h2.66c.47,0,.93-.19,1.26-.52.34-.33.52-.79.52-1.26s-.19-.93-.52-1.26c-.34-.33-.79-.52-1.26-.52h0Z"/>
    </g>
  </g>
</svg>